<svg width="800" height="800" viewBox="0 0 150 150" id="ART" xmlns="http://www.w3.org/2000/svg"><defs><style>.cls-1{fill:#b26f2d}.cls-1,.cls-10,.cls-7{stroke:#000;stroke-miterlimit:10}.cls-1{stroke-width:4px}.cls-2{fill:#d8985d}.cls-7{stroke-width:2px}.cls-7{fill:#fff}.cls-10{fill:none}</style></defs><ellipse class="cls-1" cx="35.51" cy="36.38" rx="19.37" ry="24.22" transform="matrix(.98 -.17 .17 .98 -5.78 6.72)"/><path class="cls-2" d="M39.67 51.53a8.45 8.45 0 0 1-1.42.38C32.07 53 25.59 46.81 24.1 38.39c-1.37-7.78 1.74-15.16 7.25-17.17a8.45 8.45 0 0 1 1.42-.38 10.11 10.11 0 0 1 8.42 2.77 18.53 18.53 0 0 1 5.73 10.75c1.37 7.79-1.75 15.17-7.25 17.17Z"/><ellipse class="cls-1" cx="114.49" cy="36.38" rx="24.22" ry="19.37" transform="rotate(-80 114.492 36.373)"/><path class="cls-2" d="M113.22 52a8.45 8.45 0 0 1-1.46-.13c-6.18-1.09-10.15-9.13-8.67-17.55 1.37-7.78 6.82-13.65 12.68-13.65a8.45 8.45 0 0 1 1.46.13 10.11 10.11 0 0 1 7 5.48 18.53 18.53 0 0 1 1.71 12.06C124.53 46.17 119.07 52 113.22 52Z"/><path d="M27.26 100.24c-15-24.37 1.22-74 24-79C55.67 8.63 71.37 8.4 71.37 8.4 68.33 14.08 69 18.48 69 18.48c6.8-8.2 18.28-7 18.28-7-.7 7.58 16.64 8.67 27.07 20.74s19.1 28.48 12.19 59.53c-3-6-6.21-6.09-6.21-6.09-.47 23-21.91 51.18-38.44 55.4.79-9.92-1.76-13.24-3.75-14.41.94 5.86-2.71 11.6-2.71 11.6-30.46-7.27-40-21.68-42.34-51.09-5.32 7.92-5.83 13.08-5.83 13.08Z" style="fill:#dd852f;stroke-width:4px;stroke:#000;stroke-miterlimit:10"/><ellipse cx="75.46" cy="105.75" rx="16.81" ry="11" style="stroke-width:2px;fill:#f2c497;stroke:#000;stroke-miterlimit:10"/><path d="M119.82 64c0 7.65-1.95 10.4-8.32 17S96 94.88 77.3 94.88h-1.66c-18.69 0-27.83-7.27-34.2-13.86s-8.32-9.34-8.32-17c0-14.77 15.12-33.53 39.52-33.53.28 0 3.55 4.09 3.83 4.1S80 30.5 80.3 30.5c24.4 0 39.52 18.76 39.52 33.5Z" style="fill:#f2c497"/><path d="M102.47 91.66c0 11-8.81 23.17-26.84 12.56-18 10.61-26.84-1.53-26.84-12.56s8.81-20 26.84-20 26.84 8.96 26.84 20Z" style="fill:#efdfc4;stroke-width:2px;stroke:#000;stroke-miterlimit:10"/><path class="cls-7" d="M65.44 60.72c-.86 4.88-6 7.74-11.24 6.82S45.09 64 46.32 57c.86-4.88 5.22-4.9 10.43-4s9.55 2.84 8.69 7.72ZM87.67 60.72c.86 4.88 6 7.74 11.24 6.82S108 64 106.79 57c-.86-4.88-5.22-4.9-10.43-4s-9.55 2.84-8.69 7.72Z"/><circle cx="59.4" cy="59.8" r="3.34" transform="rotate(-80 59.402 59.806)"/><circle cx="93.71" cy="59.8" r="3.34" transform="rotate(-10 93.704 59.797)"/><path d="M84.7 77.64c0 3.73-5.33 9.42-9.07 9.42s-9.07-5.68-9.07-9.42 5.33-4.1 9.07-4.1 9.07.37 9.07 4.1Z" style="fill:#4c331c"/><path style="stroke-linecap:round;fill:none;stroke-width:2px;stroke:#000;stroke-miterlimit:10" d="M75.64 104.22V87.77"/><path class="cls-10" d="m83.33 90.9 11.81-5.81M84.74 93.67h12.4M83.33 96.43l11.81 5.81M66.59 90.9l-10.81-5.81M65.19 93.67H53.78M66.59 96.43l-10.81 5.81"/></svg>