<svg width="800" height="800" viewBox="0 0 150 150" id="ART" xmlns="http://www.w3.org/2000/svg"><defs><style>.cls-1{fill:#261c1a}.cls-1,.cls-2,.cls-5{stroke:#000;stroke-miterlimit:10}.cls-1{stroke-width:3px}.cls-2{fill:#fceebb;stroke-width:1.98px}.cls-5{fill:#fff;stroke-width:2px}.cls-6{fill:#190e0c}</style></defs><path class="cls-1" d="M103.95 77.5a6.06 6.06 0 0 1 2.8 1c16.72 10.75 29.41.47 35.62-5.27-7.57-2.15-21.37-12.63-34.74-3.84-10.21 6.72-6.16 7.92-3.68 8.11ZM46.05 77.5a6.06 6.06 0 0 0-2.8 1c-16.71 10.75-29.4.5-35.61-5.27C15.2 71.08 29 60.6 42.37 69.39c10.21 6.72 6.16 7.92 3.68 8.11Z"/><path class="cls-2" d="M113.94 15c12.36 5.56 23.69 40.07 0 50.9s-30.75-14.39-30.73-17c11.94 6.26 43.63 5.1 30.73-33.9ZM36.06 15c-12.36 5.56-23.69 40.07 0 50.9s30.75-14.39 30.73-17C54.85 55.16 23.16 54 36.06 15Z"/><path d="M115.46 74.3c0 12.54-13.09 19.06-13.09 24.16 0 20.23-.08 29.8-12.34 33.18a3.24 3.24 0 0 1-3.24 3.16H63.22a3.24 3.24 0 0 1-3.22-3.16c-12.26-3.38-12.34-12.95-12.34-33.18 0-5.1-13.1-11.62-13.1-24.16 0-29.23 18.12-33.75 40.46-33.75s40.44 4.52 40.44 33.75Z" style="stroke-width:4px;stroke:#000;stroke-miterlimit:10;fill:#261c1a"/><path d="M94.85 114.51c0 7.59-4.39 12.46-8.8 12.46s-7-2.69-10.08-2.69c-3.38 0-6.26 2.69-11.11 2.69s-9.71-4.86-9.71-12.46 7-12.46 11.3-12.46 2.81 2.17 9.52 2.17c6.08 0 4.69-2.17 8.63-2.17s10.25 4.86 10.25 12.46Z" style="fill:#3f3432;stroke-width:4px;stroke:#000;stroke-miterlimit:10"/><path class="cls-5" d="M102.36 71.59c0 3.92-5.6 9.52-9.52 9.52A7.09 7.09 0 0 1 85.75 74c0-2.26 3.53-4.54 5.89-5.25 4.56-1.36 10.72-1.07 10.72 2.84Z"/><circle cx="92.28" cy="72.7" r="3.97"/><path class="cls-5" d="M47.62 71.59c0 3.92 5.18 9.52 8.81 9.52A6.84 6.84 0 0 0 63 74c0-2.26-3.27-4.54-5.45-5.25-4.23-1.36-9.93-1.07-9.93 2.84Z"/><ellipse cx="56.94" cy="72.7" rx="3.67" ry="3.97"/><ellipse class="cls-6" cx="65.75" cy="116.22" rx="2.88" ry="1.71"/><ellipse class="cls-6" cx="84.24" cy="116.22" rx="2.88" ry="1.71"/></svg>