<svg width="800" height="800" viewBox="0 0 150 150" id="ART" xmlns="http://www.w3.org/2000/svg"><defs><style>.cls-3{stroke:#000}.cls-3{stroke-width:2px}.cls-3{stroke-miterlimit:10}.cls-3{fill:#fff}</style></defs><path d="M69.31 19.83C66.65 15 63.58 6.39 60 5.29c6.17.07 14 3.81 15.56 9 1.91-5.95 7-5.95 10.25-6.17-4.92 4.4-5.25 8.81-5.25 10.8s-10.08 3.08-11.25.91Z" style="stroke-width:2px;stroke-linecap:round;stroke-linejoin:round;stroke:#000;fill:#ffc533"/><path d="M136.24 94.23c0 28.23-35.47 44.1-61.24 44.1s-61.24-15.86-61.24-44.1C13.76 82 22 74 28.35 61 38.11 41 42.27 17.17 75 17.17S111.89 41 121.65 61c6.35 13 14.59 21 14.59 33.23Z" style="stroke-width:4px;stroke-miterlimit:10;stroke:#000;fill:#ffc533"/><ellipse class="cls-3" cx="52.48" cy="60.75" rx="15.94" ry="10.12" transform="rotate(-79.71 52.481 60.743)"/><ellipse cx="52.4" cy="66.69" rx="6.96" ry="5.39" transform="rotate(-79.71 52.396 66.69)"/><ellipse class="cls-3" cx="97.52" cy="60.75" rx="10.12" ry="15.94" transform="rotate(-10.29 97.533 60.789)"/><ellipse cx="97.6" cy="66.69" rx="5.39" ry="6.96" transform="rotate(-10.29 97.613 66.73)"/><path d="M118.82 114.66c-8.73 13.53-6.28 29-45.94 29-36.53 0-34.27-15.52-42.32-29-5-8.42-9.87-15.56-5.64-19.27s16.65-.26 25.44-.26 9.92-13.91 22.52-13.91c13.69 0 14.91 13.91 24.45 13.91s22.9-3.54 27.62.26-.7 10.85-6.13 19.27Z" style="fill:#ea6726;stroke-width:4px;stroke-miterlimit:10;stroke:#000"/><path d="M58.6 105.94c-1.71-3-1.25-5.24.38-6.17s3.8-.19 5.51 2.79 2.31 7.09.68 8-4.86-1.64-6.57-4.62ZM91.4 105.94c1.71-3 1.25-5.24-.38-6.17s-3.8-.19-5.51 2.79-2.31 7.09-.68 8 4.86-1.64 6.57-4.62Z"/></svg>